<?xml version="1.0" encoding="UTF-8"?><svg id="a" xmlns="http://www.w3.org/2000/svg" viewBox="0 0 812.78 270.32"><defs><style>.b{fill:none;}.c{fill:#fff;}.d{fill:#ffa59d;}.e{fill:#b6cff2;}.f{fill:#86472f;}.g{fill:#ccc;}.h{fill:#cbdcea;}.i{fill:#2baf9c;}.j{fill:#5c6ca1;}.k{fill:#58c4b7;}.l{fill:#4c4c4c;}.m{fill:#1d1d1b;opacity:.5;}</style></defs><g><path class="b" d="M137.58,79.62h0l.02,.07-.02-.07Z"/><path class="b" d="M173.82,101.48c-.65,.6-1.41,1.05-2.25,1.39,.84-.34,1.6-.8,2.25-1.39Z"/><path class="b" d="M174.31,91.68c.18,.14,.29,.24,.29,.24h0s-.11-.09-.29-.24Z"/><path class="b" d="M175.74,136.73c.05,.46,.09,.84,.1,1.12-.02-.29-.05-.67-.1-1.12Z"/><path class="b" d="M175.44,78.84c.07,.66,.14,1.23,.2,1.69-.06-.45-.13-1.03-.2-1.69Z"/><path class="b" d="M163.04,90.27c-1.36,.38-2.65,.85-3.8,1.34,1.15-.49,2.44-.96,3.8-1.34Z"/><path class="b" d="M160.94,160.34c.01,.67-.02,1.34-.11,2.01,.09-.67,.12-1.35,.11-2.01Z"/><path class="b" d="M145.7,117.27h0c.17-.5,.37-.98,.59-1.46-.22,.48-.42,.97-.59,1.46Z"/><path class="b" d="M158.11,167.23c.67-.22,1.23-.68,1.67-1.25-.43,.57-.99,1.03-1.67,1.25Z"/><path class="b" d="M158.11,167.23c-.41,.13-.8,.3-1.2,.48,.4-.17,.79-.35,1.2-.48Z"/><path class="b" d="M141.87,74.58c-.9,.5-1.72,.99-2.47,1.46,.74-.47,1.57-.96,2.47-1.46Z"/><path class="b" d="M125.38,121.31c-2.41,.99-4.99,2.16-7.71,3.55,2.72-1.39,5.3-2.57,7.71-3.55Z"/><path class="b" d="M242.69,76.08c-.05,.3-.07,.61-.11,.91,.03-.3,.06-.61,.11-.91h0Z"/><path class="b" d="M103.53,201.31c-2.69-1.79-5.13-3.4-7.35-4.86,2.22,1.46,4.66,3.07,7.35,4.86Z"/><path class="b" d="M81.88,152.41c-1.49,1.27-2.91,2.55-4.28,3.83,1.37-1.29,2.8-2.56,4.28-3.83Z"/><path class="b" d="M73.63,160.13c-1.28,1.31-2.51,2.62-3.7,3.95,1.19-1.33,2.43-2.64,3.7-3.95Z"/><path class="b" d="M144.52,94c-.21-.42-.66-1.26-.66-1.26,.23,.42,.45,.84,.66,1.26Z"/><polygon class="b" points="82.23 187.72 82.23 187.72 86.54 184.8 82.23 187.72"/><path class="b" d="M140.62,82.02c.05,.05,.13,.12,.22,.2,.22,.2,.57,.51,.99,.89-.78-.72-1.3-1.18-1.3-1.17,0,0,.03,.03,.09,.08Z"/><path class="b" d="M106.49,167.75c-.18-.06-.36-.11-.54-.17h.03c.16,.07,.34,.12,.51,.17Z"/><path class="b" d="M241.01,94.8c-.28-.28-.58-.55-.89-.81,.3,.65,.6,1.29,.88,1.95,.03-.1,.06-.2,.09-.3,.18-.54-.09-.84-.09-.84Z"/><path class="b" d="M232.31,174.14c.81-1.01,1.61-2.09,2.41-3.23-.79,1.14-1.6,2.22-2.41,3.23Z"/><path class="b" d="M223.9,182.17c.95-.62,1.92-1.37,2.9-2.22-.98,.85-1.95,1.6-2.9,2.22Z"/><path class="g" d="M171.63,115.62c-.24-.5-.51-.99-.81-1.47,.15,.45,.31,.89,.48,1.34,.11,.04,.22,.09,.33,.13Z"/><path class="g" d="M108.21,168.31c-.76,.55-1.52,1.1-2.28,1.66-.76,.56-1.51,1.13-2.27,1.72-1.46,1.09-2.92,2.2-4.38,3.35-1.46,1.14-2.92,2.31-4.39,3.5-.67,.55-1.34,1.1-2.02,1.66-.68,.56-1.35,1.12-2.03,1.69l-4.31,2.92-4.31,2.92c1.8,1.02,4.02,2.37,6.72,4.07,.3,.19,.6,.38,.91,.58,1.28,.82,2.67,1.71,4.17,2.68,.69,.45,1.41,.92,2.15,1.4,2.22,1.46,4.66,3.07,7.35,4.86h0c.19,.1,.39,.22,.61,.34,.44,.25,.94,.53,1.47,.84s1.11,.64,1.7,.99c.77,.46,1.57,.94,2.36,1.43,.31,.19,.61,.38,.91,.58,.21,.13,.41,.26,.61,.4,.31,.2,.6,.4,.89,.6,.32,.22,.62,.43,.9,.64,.35,.26,.68,.51,.97,.74,.21,.17,.4,.33,.57,.49,.34,.31,.62,.6,.79,.86,2.16-.9,4.27-1.59,6.63-1.75,.06,0,.12-.02,.18-.02-.43-8.14-.97-16.65-1.61-24.63-.44-5.49-.91-10.72-1.44-15.41-.18-1.56-.36-3.07-.55-4.5l-10.33,5.41h0Z"/><path class="g" d="M73.63,160.13c1.28-1.31,2.6-2.6,3.97-3.89s2.8-2.56,4.28-3.83c.76-.68,1.53-1.34,2.3-1.98,.77-.64,1.56-1.27,2.34-1.89-.01-.09-.02-.14-.02-.14,.71-.75,1.42-1.48,2.13-2.19,.71-.72,1.42-1.41,2.13-2.09,1.57-1.49,3.13-2.91,4.69-4.25,6.23-5.36,12.37-9.53,18.05-12.76,1.42-.81,2.81-1.56,4.17-2.25,2.72-1.39,5.3-2.57,7.71-3.55,.08-.03,.19-.06,.26-.1,3.28-1.8,6.84-3.18,9.9-4.19,.87-.29,1.71-.54,2.48-.77s1.49-.42,2.13-.59c.64-.17,1.2-.31,1.67-.42,.71-.17,1.2-.27,1.42-.32,.48-1.09,1.07-2.14,1.8-3.13,.75-1.02,1.58-1.93,2.5-2.75,.07-.9,.11-1.8,.09-2.7v-.19c-.02-.63-.06-1.25-.13-1.88-.06-.63-.14-1.26-.25-1.88-.05-.04-6.53-5.66-8.79-8.99-.07-.11-.14-.23-.2-.37-.06-.14-.13-.3-.18-.48-.92-.45-1.72-1.07-2.4-1.77s-1.25-1.5-1.72-2.32c-.17-.3-.33-.6-.48-.91-.44-.93-.74-1.9-.79-2.89-.03-.66,.07-1.34,.3-1.97s.61-1.22,1.13-1.71c.13-.12,.28-.24,.43-.35-.05-.26-.09-.53-.14-.8l-.02,.02-.16-1.22c-.04-.31-.08-.62-.12-.94l-1.46-11.24c-2.1-6.76,3.95-13.44,13.56-14.99,0,0,27.94-8.09,32.25,6.72,.1,.18-.92,11.13-.92,11.13-.25-.04-.48-.07-.73-.11,.05,.04,.11,.07,.17,.12l-.04,6.04v.75l-.03,2.59h0c-.16,.52-.33,1.04-.5,1.53-.17,.49-.36,.95-.55,1.37-.04-.05-.08-.22-.13-.47,.16,2.73,.36,5.24,.54,7.21,.06,.36,.16,1,.26,1.82,.04,.33,.08,.69,.12,1.07,.25,2.5,.43,6.06-.06,9.24-.15,.98-.37,1.92-.67,2.78-.07,.22-.15,.43-.24,.63-.51,1.23-1.21,2.26-2.17,2.95-.16,.11-.33,.22-.5,.31-.56,.3-1.1,.56-1.64,.78s-1.07,.4-1.6,.55c1.45,1.13,2.72,2.44,3.75,4.04,.86,1.33,1.36,2.78,1.94,4.23,.02,.05,.05,.15,.08,.26,3.73,1.26,6.73,2.12,9.25,2.82,.61,.17,1.19,.33,1.75,.49,1.18,.33,2.24,.63,3.23,.93,1.26,.39,2.4,.78,3.48,1.25,.79,.34,1.56,.73,2.32,1.18,.52,.31,1.04,.64,1.57,1.01,.38,.27,.74,.56,1.1,.88,.18,.16,.36,.33,.54,.5,.36,.35,.72,.73,1.08,1.16,.37,.42,.74,.89,1.14,1.39,.2,.25,.4,.52,.61,.8l5.23,6.83,9.23,12.05-.02,.06s-.03,.1-.06,.17l3.45,4.45c.5-1.21,1.02-2.44,1.54-3.68,.31-.69,.61-1.42,.92-2.13s.62-1.4,.92-2.13c1.26-2.92,2.57-5.93,3.89-9.01,.31-.78,.63-1.55,.95-2.33,.64-1.54,1.28-3.07,1.9-4.58,.31-.75,.61-1.51,.9-2.25,.15-.37,.29-.73,.44-1.1,.44-1.1,.87-2.19,1.25-3.29,.27-.72,.55-1.43,.83-2.14,.28-.71,.55-1.41,.8-2.11,.72-2.09,1.48-4.11,2.14-6.05,.22-.65,.43-1.28,.63-1.91,.03-.08,.05-.13,.06-.2,.43-1.22,.81-2.4,1.17-3.54,.36-1.14,.69-2.25,1.02-3.31,.13-.38,.25-.75,.36-1.12,.11-.36,.22-.72,.32-1.07,.4-1.34,.74-2.58,1.09-3.74,.14-.45,.28-.89,.42-1.33-.28-.65-.58-1.3-.88-1.95-.54-.46-1.1-.91-1.66-1.35-.56-.45-1.11-.89-1.64-1.37-.17-.15-.33-.31-.49-.47-.48-.48-.92-1-1.28-1.56-.24-.37-.44-.76-.6-1.17-.16-.41-.27-.83-.32-1.27-.01-.12,0-.25-.01-.37-.03-.87,.17-1.75,.54-2.6-16.66-26.86-46.39-44.75-80.32-44.75-52.17,0-94.45,42.29-94.45,94.45,0,12.2,2.34,23.85,6.55,34.56,1.13-1.35,2.29-2.68,3.48-4.01,1.19-1.33,2.43-2.64,3.7-3.95Z"/><path class="i" d="M234.14,86.8c.05,.44,.16,.86,.32,1.27,.16,.41,.36,.79,.6,1.17,.36,.56,.8,1.08,1.28,1.56,.16,.16,.32,.32,.49,.47,.52,.48,1.08,.93,1.64,1.37,.56,.45,1.12,.89,1.66,1.35,.3,.26,.6,.53,.89,.81,0,0,.26,.29,.09,.84-.03,.1-.06,.2-.09,.3-.14,.44-.28,.88-.42,1.33-.35,1.16-.69,2.4-1.09,3.74,1.22,.17,2.45,.29,3.68,.37,.97,.07,1.93,.12,2.91,.14l-3.36-7.47-.66-1.46-5.29-11.76c-.9,.89-1.65,1.92-2.12,3.01-.37,.85-.57,1.73-.54,2.6,0,.12,0,.25,.01,.37Z"/><path class="e" d="M225.87,54.45l3.16-6.27,.53-1.05c-3.93-6.48-10.82-5.77-10.82-5.77l9.93,18.22-2.79-5.13Z"/><path class="e" d="M229.25,61.68l1.94,4.32,4.49-2.45,.86-.47-2.89-5.16c-.28-.47-.82-.73-1.47-.76-.02-.4-.04-.8-.07-1.18l-.8,1.58-2.08,4.12Z"/><path class="e" d="M257.28,100.14l-.1-.16-2.24-4.01c-.2,.3-.41,.59-.63,.88-.48,.63-1,1.23-1.57,1.8-2-1.26-3.74-2.8-5.19-4.54l-.25,.49-1.72,3.41,1.58,3.52,1.41,3.14,.08,.17c.11,.19,.26,.38,.45,.55,1.29,1.19,4.32,1.83,6.43,1.05,.19-.07,.38-.15,.56-.25,2.38-1.3,2.07-4.4,1.18-6.05Z"/><polygon class="e" points="232.03 67.87 237.55 80.14 238.01 81.17 239.14 78.95 241.58 74.1 242.11 73.04 237.54 64.87 236.68 65.34 232.03 67.87"/><path class="j" d="M249.11,105.39c-.19-.17-.34-.36-.45-.55l-.08-.17-1.41-3.14-1.58-3.52-1.94-4.31-1.09-2.42-4.54-10.1-.47-1.04-5.52-12.27,4.65-2.53,.86-.47c-1.4-.49-.99-1.78-.99-1.78l-.86,.47-4.49,2.45-1.94-4.32-.49-1.08c-.15-.31-.18-.66-.09-1.02l-9.93-18.22-.86,.47,9.93,18.22c-.08,.36-.06,.71,.09,1.02l2.43,5.41s1.49,.38,.84,1.86l5.61,12.49,5.29,11.76,.66,1.46,3.36,7.47,1.63,3.62,.08,.17c.25,.46,.77,.87,1.42,1.19,1.68,.83,4.31,1.09,6.02,.16,.12-.06,.2-.15,.3-.22-2.11,.78-5.14,.14-6.43-1.05Z"/><path class="h" d="M225.87,54.45l2.79,5.13c-.08,.36-.06,.71,.09,1.02l.49,1.08,2.08-4.12,.8-1.58c-.32-3.89-1.28-6.75-2.56-8.86l-.53,1.05-3.16,6.27Z"/><path class="h" d="M239.14,78.95l-1.12,2.23,4.54,10.1,1.09,2.42,1.94,4.31,1.72-3.41,.25-.49c-.2-.24-.39-.5-.58-.75-.83-1.1-1.57-2.26-2.18-3.49-.18-.36-.34-.73-.5-1.1-1.56-3.62-2.17-7.67-1.71-11.77,.03-.3,.06-.61,.11-.91,.08-.5,.18-1,.29-1.5l-.86-1.54-.53,1.06-2.44,4.85Z"/><path class="g" d="M247.56,139.14c-.24,1.1-.49,2.2-.74,3.28-.31,1.3-.63,2.59-.99,3.86-.3,1.08-.61,2.16-.95,3.21-.25,.84-.51,1.66-.79,2.47-.28,.81-.57,1.61-.88,2.39-.24,.62-.48,1.23-.72,1.84-.16,.4-.33,.8-.49,1.19-.22,.53-.44,1.07-.68,1.59-1.02,2.22-2.04,4.36-3.15,6.35-.37,.66-.75,1.31-1.14,1.94-.74,1.28-1.52,2.49-2.31,3.63-.79,1.14-1.6,2.22-2.41,3.23-1.58,2.05-3.28,3.78-4.87,5.26-.21,.2-.42,.37-.64,.56-.98,.85-1.95,1.6-2.9,2.22-.39,.25-.77,.48-1.15,.69-2.97,1.7-5.56,2.44-7.47,1.61-.49-.21-1.53-.76-1.53-.76,0,0-2.76-1.25-6.38-4.29-2.95-2.48-6.47-6.14-9.55-11.31,.98,14.38,3.03,30.51,5.64,46.12,27.19-16.58,45.35-46.52,45.35-80.7,0-.57-.03-1.14-.04-1.7-.16,1.2-.34,2.4-.54,3.62-.2,1.22-.42,2.45-.66,3.69Z"/><path class="d" d="M247.8,105.3l-.08-.17-1.63-3.62c-.97-.02-1.94-.07-2.91-.14-1.24-.09-2.47-.2-3.68-.37-.1,.35-.21,.7-.32,1.07-.11,.36-.24,.73-.36,1.12-.33,1.06-.66,2.16-1.02,3.31-.36,1.14-.74,2.33-1.17,3.54-.01,.07-.03,.13-.06,.2-.2,.63-.41,1.26-.63,1.91-.66,1.94-1.42,3.96-2.14,6.05-.25,.7-.52,1.4-.8,2.11-.28,.71-.56,1.42-.83,2.14-.39,1.1-.81,2.19-1.25,3.29-.15,.37-.29,.73-.44,1.1-.29,.75-.59,1.5-.9,2.25-.62,1.51-1.26,3.03-1.9,4.58-.32,.77-.64,1.55-.95,2.33-1.32,3.08-2.63,6.08-3.89,9.01-.3,.73-.61,1.42-.92,2.13s-.61,1.44-.92,2.13c-.52,1.24-1.04,2.47-1.54,3.68l-3.45-4.45c-.59,1.75-4.99,13.37-18.22,19.08,.01,.18,.03,.36,.04,.53,3.08,5.17,6.6,8.84,9.55,11.31,3.62,3.04,6.38,4.29,6.38,4.29,0,0,1.04,.55,1.53,.76,1.91,.83,4.51,.09,7.47-1.61,.38-.21,.76-.44,1.15-.69,.95-.62,1.92-1.37,2.9-2.22,.21-.18,.42-.36,.64-.56,1.59-1.48,3.29-3.21,4.87-5.26,.81-1.01,1.61-2.09,2.41-3.23,.79-1.14,1.57-2.35,2.31-3.63,.39-.63,.77-1.28,1.14-1.94,1.11-1.99,2.13-4.13,3.15-6.35,.24-.52,.46-1.06,.68-1.59,.16-.39,.33-.79,.49-1.19,.24-.61,.48-1.21,.72-1.84,.31-.78,.6-1.58,.88-2.39,.28-.81,.54-1.63,.79-2.47,.34-1.05,.65-2.13,.95-3.21,.35-1.27,.68-2.56,.99-3.86,.26-1.09,.51-2.18,.74-3.28,.24-1.24,.46-2.48,.66-3.69,.2-1.22,.38-2.42,.54-3.62,.14-1.05,.26-2.08,.35-3.11,.21-1.67,.34-3.33,.42-4.93,.07-1.62,.18-3.2,.19-4.72,0-2.3-.01-4.52-.11-6.61-.07-2.11-.22-4.09-.4-5.96-.65-.32-1.17-.73-1.42-1.19Z"/><path class="k" d="M151.53,168.46c.19,0,.39,.03,.59,.08,.2,.05,.41,.12,.61,.22,.15,.07,.29,.14,.46,.1,.42-.11,.85-.21,1.27-.31s.84-.22,1.26-.35c.2-.07,.4-.15,.6-.23,.2-.08,.4-.17,.59-.26,.4-.17,.79-.35,1.2-.48,.67-.22,1.23-.68,1.67-1.25,.26-.34,.48-.73,.64-1.12,.32-.76,.47-1.57,.39-2.24,0-.04,0-.09,0-.13,0-.05,0-.09,0-.14,.09-.68,.12-1.35,.11-2.01,0-.33-.02-.66-.05-.99-.06-.66-.15-1.32-.28-1.96-.13-.65-.28-1.29-.46-1.93-.09-.32-.18-.64-.28-.95-.15-.5-.31-1.01-.48-1.51-.33-1.01-.71-2.01-1.17-2.96-.23-.48-.48-.95-.77-1.4-.24-.39-.48-.79-.72-1.18-.39-.65-.79-1.3-1.2-1.94-.34-.52-.7-1.04-1.09-1.53-.33-.41-.78-.35-1.17-.5-.09-.03-.16-.08-.24-.12-.24-.12-.46-.26-.64-.47-.2-.25-.42-.48-.64-.71-.02-.02-.04-.05-.07-.07-.25-.25-.51-.48-.77-.7-.54-.45-1.11-.85-1.69-1.23-.56-.37-1.15-.66-1.74-.92-.2-.09-.39-.18-.59-.26,.53,4.3,1.1,9.01,1.69,14.01,.59,5,1.21,10.29,1.84,15.73,.17-.09,.35-.16,.53-.2s.37-.07,.57-.06Z"/><path class="k" d="M108.21,168.31h0l10.33-5.41v-.05l-6.28,3.28-4.11,2.16s.04,.01,.06,.02h0Z"/><path class="k" d="M175.28,149.15c-1.84-1.14-3.08-3.16-3.08-5.49s1.14-4.22,2.88-5.38c-.02-1.3-.05-2.55-.07-3.76-.02-1.2-.04-2.36-.06-3.47h0c-.52-3.33-1.15-7.05-1.58-9.48,.27,7.69-2.52,18.43-25.72-2.52-.64-.57-1.28-1.16-1.94-1.78-.54,1.55-.82,3.17-.77,4.83,.02,.69,.04,1.39,.07,2.08,.09,.68,.19,1.4,.29,2.15,.3,2.25,.63,4.78,.97,7.54,.1,.02,.2,.05,.29,.07,2.51,.6,4.8,1.62,6.77,3.34,.89,.78,1.81,1.54,2.66,2.36,.4,.39,.65,.82,.63,1.31-.02,.67,.29,1.16,.68,1.59,.95,1.05,1.5,2.34,2.29,3.49,1.3,1.91,2.01,4.09,2.83,6.22,.57,1.46,.83,2.98,1.19,4.49,.35,1.45,.34,2.89,.41,4.35,.11,2.42-.3,4.7-1.61,6.77-.26,.41-.63,.73-1.01,1.02-.84,.64-1.73,1.18-2.73,1.56-1.44,.53-2.85,1.12-4.38,1.35-.44,.07-.58,.36-.8,.7-.39,.58-1.52,1.09-2.52,.94,1.67,14.55,3.39,29.91,4.92,43.67,.41,3.74,.82,7.36,1.2,10.82,6.64-.19,13.1-1.06,19.33-2.55,0-2.56-.02-5.2-.05-7.9-.17-22.09-.7-48.21-1.1-68.32Z"/><path class="d" d="M98.84,209.94c1.34-2.97,2.89-5.86,4.69-8.62-2.69-1.79-5.13-3.4-7.35-4.86-.74-.49-1.46-.95-2.15-1.4-1.5-.97-2.89-1.87-4.17-2.68-.31-.2-.61-.39-.91-.58-2.7-1.7-4.92-3.05-6.72-4.07h0l4.31-2.92,4.31-2.92c.67-.57,1.35-1.14,2.03-1.69,.68-.56,1.35-1.11,2.02-1.66,1.47-1.19,2.93-2.36,4.39-3.5,1.46-1.14,2.92-2.26,4.38-3.35,.75-.59,1.51-1.16,2.27-1.72,.76-.56,1.52-1.11,2.28-1.66h-.03l-.03-.02-.3,.16c-18.39-5.35-21.09-18.45-21.33-19.9-.78,.62-1.56,1.25-2.34,1.89-.77,.64-1.54,1.3-2.3,1.98-1.49,1.27-2.91,2.55-4.28,3.83s-2.69,2.58-3.97,3.89-2.51,2.62-3.7,3.95c-1.19,1.33-2.35,2.66-3.48,4.01-3.23,3.86-6.23,7.8-9.15,11.86-9.13,12.69-.55,20.41,18.29,27.53,8.29,2.88,15.71,5.6,22.26,7.52-.34-.16-.65-.31-.9-.44,.56-1.56,1.21-3.09,1.9-4.61Z"/><path class="d" d="M108.21,168.31h0s-.04-.01-.06-.02h.03l.03,.02Z"/><path class="d" d="M171.33,115.55c.11,.04,.22,.08,.33,.12l-.03-.05c-.11-.04-.22-.09-.33-.13,0,.02,.02,.04,.02,.06Z"/><path class="i" d="M242.69,76.08c-.05,.3-.07,.61-.11,.91-.47,4.11,.14,8.15,1.71,11.77,.16,.37,.32,.74,.5,1.1,.61,1.23,1.34,2.39,2.18,3.49,.19,.25,.38,.51,.58,.75,1.45,1.75,3.19,3.29,5.19,4.54,.57-.57,1.1-1.17,1.57-1.8,.22-.29,.43-.58,.63-.88,2.77-4.15,3.58-9.23,1.94-13.37-2.01-5.09-7.62-8.49-13.82-8.4-.03,.13-.05,.26-.08,.39-.11,.5-.21,1-.29,1.5h0Z"/><path class="c" d="M145.29,133.31v.09c.01,.2-.01,.38,.15,.42,.06,.01,.13,.01,.24,0,.09-.02,.19-.01,.29,0,.1,.01,.2,.04,.3,.06-.35-2.76-.67-5.29-.97-7.54-.1-.75-.2-1.47-.29-2.15,.06,2.09,.13,4.18,.2,6.27,.03,.95,.05,1.9,.09,2.85Z"/><path class="c" d="M150.97,173.43c-.31-.05-.61-.15-.86-.35-1.09-.82-1.43-2.28-.7-3.41,.28-.43,.63-.75,1.01-.95-.63-5.44-1.25-10.73-1.84-15.73-.59-5-1.16-9.71-1.69-14.01-1.57-.57-3.23-.72-4.96-.17-1.49,.47-2.85,1.3-4.03,2.37-.68,.61-1.37,1.21-1.91,1.96-.28,.39-.63,.77-1.09,.93-1.52,.5-1.88,1.93-2.56,3.1-.05,.08-.07,.17-.11,.25-.96,1.49-1.5,3.17-2.13,4.8-.85,2.2-1.36,4.52-1.55,6.86-.16,1.92-.11,3.86,.32,5.79,.45,1.98,2.11,3.32,3.77,3.6,.65,.11,1.28,.38,1.92,.53,.71,.17,1.43,.27,2.15,.42,.25,.05,.45-.05,.64-.17,.91-.58,1.85-.4,2.67,.07,.89,.51,1.2,1.44,1.03,2.45-.15,.93-.72,1.64-1.55,2.03-.83,.39-1.77,.27-2.38-.39-.97-1.04-2.28-1.09-3.49-1.39-.54-.13-1.09-.23-1.63-.38-1.6-.44-3.12-1.07-4.3-2.27-.99-1-1.48-2.29-1.84-3.64-.7-2.67-.69-5.35-.31-8.08,.31-2.24,.82-4.4,1.58-6.54,.71-1.99,1.51-3.92,2.55-5.77,.27-.49,.51-1,.83-1.47,.45-.65,1.01-1.23,.9-2.14-.04-.34,.2-.7,.43-.99,2.32-2.9,4.99-5.35,8.68-6.42,.09-.03,.18-.04,.27-.07,1.37-.32,1.67-.8,1.3-2.17-.04-.16-.07-.31-.07-.47-.05-2.33,.02-4.68-.18-7-.13-1.53,.04-3.04-.02-4.56-.02-.56,.21-1.12,.33-1.68,.17-.77,.39-1.51,.64-2.23,.14-.4,.28-.81,.45-1.2-.22,.05-.71,.15-1.42,.32-.47,.11-1.03,.25-1.67,.42-.64,.17-1.36,.36-2.13,.59s-1.61,.48-2.48,.77c-3.06,1-6.61,2.39-9.9,4.19-.07,.04-.18,.07-.26,.1-2.41,.99-4.99,2.16-7.71,3.55-1.36,.7-2.75,1.45-4.17,2.25-5.68,3.23-11.82,7.4-18.05,12.76-1.56,1.34-3.12,2.75-4.69,4.25-.71,.68-1.42,1.38-2.13,2.09-.71,.72-1.42,1.45-2.13,2.19,0,0,0,.05,.02,.14,.24,1.45,2.94,14.55,21.33,19.9l.3-.16c-.38-.11-.73-.24-1.1-.35-.36-.12-.74-.23-1.1-.35,.17,.06,.36,.11,.54,.17,.54,.18,1.08,.37,1.66,.54l4.11-2.16,6.27-3.28v.05c.2,1.43,.38,2.94,.56,4.5,.53,4.69,1.01,9.93,1.44,15.41,.64,7.98,1.18,16.48,1.61,24.63,.12,0,.25-.01,.37-.02,2.16-.07,4.55,.32,7.4,1.43,5.32,2.04,7.19,4.98,7.23,7.91,.04,3.34-2.31,6.66-4.72,8.64,7.04,1.67,14.37,2.58,21.91,2.58,.92,0,1.83-.04,2.74-.07-.38-3.45-.78-7.08-1.2-10.82-1.53-13.76-3.25-29.12-4.92-43.67Zm-10.86-57.42h.02s-.06,.01-.08,.01c.03,0,.05-.01,.06-.01Z"/><path class="c" d="M106.49,167.75c-.17-.06-.34-.11-.51-.16h-.03c.35,.11,.73,.23,1.1,.35,.36,.12,.72,.24,1.1,.35h0c-.58-.17-1.12-.35-1.66-.54Z"/><path class="c" d="M140.13,116.01h-.02s-.03,0-.06,.02c.02,0,.06-.02,.08,0v-.02Z"/><path class="c" d="M175.74,136.73c-.05-.46-.12-.99-.2-1.58-.16-1.18-.37-2.6-.6-4.09,.02,1.1,.04,2.26,.06,3.47,.02,1.2,.04,2.46,.07,3.76,.24-.16,.51-.29,.78-.42-.02-.29-.05-.67-.1-1.12Z"/><path class="c" d="M197.78,167.58c13.23-5.71,17.62-17.33,18.22-19.08,.02-.07,.04-.13,.06-.17l.02-.06-9.23-12.05-5.23-6.83c-.21-.28-.41-.55-.61-.8-.39-.51-.77-.97-1.14-1.39-.37-.42-.72-.81-1.08-1.16-.18-.17-.36-.34-.54-.5-.36-.32-.72-.61-1.1-.88-.53-.38-1.05-.7-1.57-1.01-.76-.45-1.53-.84-2.32-1.18-1.08-.47-2.22-.86-3.48-1.25-.99-.3-2.06-.61-3.23-.93-.56-.16-1.14-.32-1.75-.49-2.52-.7-5.52-1.56-9.25-2.82,0,.03,.02,.07,.03,.1,.69,2.69,3.14,17.12,3.42,20.13,3.42,.17,6.15,2.98,6.15,6.44s-2.9,6.47-6.47,6.47c-1.25,0-2.4-.37-3.39-.98,.39,20.11,.93,46.23,1.1,68.32,.02,2.7,.04,5.34,.05,7.9,7.18-1.72,14.04-4.26,20.49-7.52h0c2.12-1.07,4.21-2.21,6.24-3.43,.1-.06,.21-.12,.31-.19-2.61-15.61-4.66-31.74-5.64-46.12-.01-.18-.03-.36-.04-.53Z"/><path class="i" d="M137.15,216.76c-.04-2.93-1.91-5.87-7.23-7.91-2.85-1.1-5.24-1.49-7.4-1.43-.12,0-.25,0-.37,.02-.06,0-.12,.02-.18,.02-2.36,.16-4.47,.85-6.63,1.75-.18-.26-.45-.55-.79-.86-.17-.16-.36-.32-.57-.49-.29-.24-.62-.49-.97-.74-.29-.21-.59-.42-.9-.64-.29-.2-.59-.4-.89-.6-.2-.13-.4-.26-.61-.4-.3-.19-.61-.39-.91-.58-.79-.49-1.59-.98-2.36-1.43-.59-.35-1.16-.68-1.7-.99s-1.03-.59-1.47-.84c-.22-.12-.42-.24-.61-.34h0c-1.8,2.77-3.35,5.66-4.69,8.63-.68,1.52-1.33,3.05-1.9,4.61,.25,.13,.57,.28,.9,.44,4.22,2.02,14.46,6.23,15.78,5.61,.97-.45,2.56-.37,4.23,.06,.98,.41,1.98,.79,2.98,1.17,.77,.42,1.48,.9,2.05,1.44,.14,.13,.26,.27,.39,.4,.22,.25,.42,.5,.57,.76,.32,.55,.77,1.01,1.29,1.39h0c.96,.72,2.16,1.16,3.27,1.35,.96,.18,2.51-.54,4.03-1.79,2.4-1.98,4.76-5.3,4.72-8.64Z"/><path class="l" d="M172.69,116.06v-.03c-.18-.07-.36-.14-.53-.21-.18-.07-.35-.14-.53-.21l.03,.05c.35,.13,.69,.26,1.03,.38Z"/><path class="l" d="M146.26,115.55c.09-.27,.17-.54,.25-.81,.56-1.88,.89-3.79,1.04-5.7-.92,.82-1.75,1.73-2.5,2.75-.73,.99-1.32,2.04-1.8,3.13-.17,.39-.31,.8-.45,1.2-.25,.73-.48,1.46-.64,2.23-.12,.56-.35,1.13-.33,1.68,.06,1.52-.11,3.03,.02,4.56,.2,2.32,.13,4.66,.18,7,0,.16,.03,.31,.07,.47,.37,1.37,.08,1.85-1.3,2.17-.09,.02-.18,.04-.27,.07-3.69,1.06-6.35,3.51-8.68,6.42-.23,.29-.47,.66-.43,.99,.11,.91-.45,1.49-.9,2.14-.32,.47-.56,.98-.83,1.47-1.04,1.85-1.84,3.78-2.55,5.77-.76,2.13-1.27,4.3-1.58,6.54-.38,2.72-.39,5.41,.31,8.08,.35,1.35,.85,2.64,1.84,3.64,1.18,1.2,2.71,1.82,4.3,2.27,.54,.15,1.1,.25,1.63,.38,1.21,.3,2.52,.35,3.49,1.39,.61,.66,1.55,.77,2.38,.39,.83-.39,1.4-1.09,1.55-2.03,.16-1.01-.15-1.94-1.03-2.45-.82-.47-1.76-.64-2.67-.07-.19,.12-.39,.23-.64,.17-.71-.15-1.44-.25-2.15-.42-.65-.15-1.27-.42-1.92-.53-1.66-.29-3.32-1.62-3.77-3.6-.43-1.93-.48-3.87-.32-5.79,.2-2.34,.7-4.65,1.55-6.86,.63-1.63,1.17-3.31,2.13-4.8,.05-.08,.07-.17,.11-.25,.68-1.17,1.04-2.6,2.56-3.1,.47-.15,.81-.54,1.09-.93,.54-.75,1.23-1.34,1.91-1.96,1.19-1.07,2.54-1.9,4.03-2.37,1.74-.55,3.39-.4,4.96,.17,.2,.07,.39,.17,.59,.26,.59,.26,1.17,.55,1.74,.92,.58,.38,1.15,.78,1.69,1.23,.27,.22,.53,.46,.77,.7,.02,.02,.04,.05,.07,.07,.22,.23,.44,.46,.64,.71,.17,.21,.39,.35,.64,.47,.08,.04,.15,.09,.24,.12,.39,.15,.84,.09,1.17,.5,.39,.49,.75,1.01,1.09,1.53,.42,.64,.81,1.29,1.2,1.94,.24,.4,.48,.79,.72,1.18,.28,.45,.53,.92,.77,1.4,.46,.96,.84,1.96,1.17,2.96,.17,.5,.32,1.01,.48,1.51,.1,.32,.19,.63,.28,.95,.18,.64,.33,1.28,.46,1.93,.13,.65,.22,1.3,.28,1.96,.03,.33,.05,.66,.05,.99,.01,.67-.02,1.34-.11,2.01,0,.05,0,.09,0,.14,0,.04-.01,.09,0,.13,.08,.66-.07,1.47-.39,2.24-.17,.4-.38,.78-.64,1.12-.43,.57-.99,1.03-1.67,1.25-.41,.13-.8,.3-1.2,.48-.2,.09-.4,.17-.59,.26-.2,.08-.4,.16-.6,.23-.41,.14-.83,.25-1.26,.35s-.85,.2-1.27,.31c-.17,.04-.3-.02-.46-.1-.2-.1-.41-.17-.61-.22-.2-.05-.4-.08-.59-.08s-.38,.02-.57,.06-.36,.11-.53,.2c-.39,.2-.73,.52-1.01,.95-.74,1.13-.4,2.59,.7,3.41,.26,.19,.55,.3,.86,.35,1,.15,2.14-.36,2.52-.94,.22-.33,.36-.63,.8-.7,1.53-.23,2.94-.82,4.38-1.35,1-.37,1.89-.91,2.73-1.56,.38-.29,.75-.61,1.01-1.02,1.31-2.07,1.72-4.34,1.61-6.77-.07-1.46-.06-2.9-.41-4.35-.36-1.51-.62-3.02-1.19-4.49-.83-2.13-1.53-4.31-2.83-6.22-.78-1.15-1.34-2.44-2.29-3.49-.39-.43-.71-.92-.68-1.59,.02-.49-.23-.92-.63-1.31-.86-.83-1.77-1.58-2.66-2.36-1.97-1.72-4.26-2.74-6.77-3.34-.09-.02-.19-.05-.29-.07-.1-.03-.2-.05-.3-.06-.1-.01-.2-.02-.29,0-.11,.02-.18,.02-.24,0-.17-.04-.14-.22-.15-.42v-.09c-.04-.95-.06-1.9-.09-2.85-.07-2.09-.13-4.18-.2-6.27-.02-.69-.05-1.39-.07-2.08-.05-1.66,.23-3.28,.77-4.83l-.03-.03c.21-.56,.4-1.13,.58-1.69Z"/><path class="l" d="M174.95,116.81s-.01,.03-.02,.05c.21,.08,.43,.15,.64,.22,0-.04-.02-.07-.03-.1-.2-.07-.38-.12-.58-.19,0,0-.01,0-.02,.02Z"/><path class="l" d="M173.52,112.49c-1.03-1.6-2.31-2.91-3.75-4.04-.12,.04-.25,.06-.37,.09,.01,.09,.03,.17,.04,.26,.06,.36,.15,.7,.2,1.06,.18,.8,.37,1.6,.6,2.4,.18,.63,.38,1.26,.6,1.88,.3,.47,.56,.96,.81,1.47,.18,.07,.35,.14,.53,.21,.18,.07,.35,.14,.53,.21v.03c-.33-.12-.68-.25-1.03-.38,.5,1.06,.9,2.18,1.2,3.35,.08,.3,.26,1.24,.5,2.56,.44,2.43,1.07,6.15,1.58,9.48h0c.23,1.5,.44,2.91,.6,4.09,.08,.59,.15,1.13,.2,1.58s.09,.84,.1,1.12c.86-.42,1.8-.67,2.82-.67,.11,0,.21,.03,.32,.03-.28-3.02-2.73-17.45-3.42-20.13-.21-.07-.42-.15-.64-.22,0-.02,.01-.04,.02-.05,0-.01,.01-.02,.02-.02,.2,.07,.38,.13,.58,.19-.03-.11-.06-.21-.08-.26-.58-1.44-1.09-2.9-1.94-4.23Z"/><path class="d" d="M171.66,115.67c-.11-.04-.22-.08-.33-.12,0-.02-.02-.04-.02-.06-.17-.44-.33-.89-.48-1.34-.21-.63-.42-1.25-.6-1.88-.23-.8-.42-1.6-.6-2.4-.05-.36-.13-.7-.2-1.06-.02-.09-.03-.17-.04-.26-1.72,.43-3.35,.51-4.86,.34-1.4-.16-2.7-.53-3.89-.99-2.25-.86-4.08-2.05-5.38-2.82-.05-.03-.1-.06-.14-.08,0,0-4.73-3.68-8.44-7.34,.72,2.59,.99,4.51,.57,4.74h0c.1,.62,.18,1.25,.25,1.88,.06,.63,.1,1.26,.13,1.88v.19c.02,.9-.02,1.8-.09,2.7-.14,1.91-.47,3.82-1.04,5.7-.07,.27-.16,.54-.25,.81,.07-.01,.13-.02,.2-.03-.05,.1-.11,.19-.16,.29-.22,.48-.42,.97-.59,1.46,.66,.62,1.3,1.21,1.94,1.78,23.2,20.96,25.98,10.21,25.72,2.52-.24-1.32-.42-2.26-.5-2.56-.31-1.17-.7-2.29-1.2-3.35Z"/><path class="d" d="M146.3,115.81c.05-.1,.11-.19,.16-.29-.06,0-.13,.02-.2,.03-.18,.57-.37,1.13-.58,1.69l.03,.03h0c.17-.5,.37-.98,.59-1.46Z"/><path class="g" d="M175.84,137.86c-.27,.13-.53,.26-.78,.42-1.73,1.16-2.88,3.14-2.88,5.38s1.24,4.35,3.08,5.49c.99,.61,2.14,.98,3.39,.98,3.57,0,6.47-2.9,6.47-6.47s-2.73-6.27-6.15-6.44c-.11,0-.21-.03-.32-.03-1.02,0-1.96,.25-2.82,.67Zm6.39,5.8c0,.99-.4,1.88-1.05,2.52-.48,.48-1.11,.83-1.8,.97-.23,.05-.47,.07-.72,.07-1.7,0-3.13-1.2-3.48-2.8-.03-.12-.03-.26-.04-.39s-.04-.25-.04-.39c0-.21,.03-.42,.06-.62,.07-.42,.22-.81,.43-1.17,.62-1.06,1.76-1.78,3.08-1.78,1.97,0,3.57,1.6,3.57,3.57Z"/><path class="g" d="M175.09,143.66c0,.13,.03,.26,.04,.39s.02,.26,.04,.39c0-.47-.02-.93-.03-1.4-.04,.2-.06,.41-.06,.62Z"/><path class="m" d="M175.09,143.66c0,.13,.03,.26,.04,.39s.02,.26,.04,.39c0-.47-.02-.93-.03-1.4-.04,.2-.06,.41-.06,.62Z"/><path class="g" d="M175.58,141.87c-.21,.35-.35,.75-.43,1.17,0,.46,.02,.93,.03,1.4,.35,1.6,1.78,2.8,3.48,2.8,.25,0,.49-.03,.72-.07,.7-.14,1.32-.49,1.8-.97,.65-.65,1.05-1.54,1.05-2.52,0-1.97-1.6-3.57-3.57-3.57-1.32,0-2.46,.72-3.08,1.78Z"/><path class="m" d="M175.58,141.87c-.21,.35-.35,.75-.43,1.17,0,.46,.02,.93,.03,1.4,.35,1.6,1.78,2.8,3.48,2.8,.25,0,.49-.03,.72-.07,.7-.14,1.32-.49,1.8-.97,.65-.65,1.05-1.54,1.05-2.52,0-1.97-1.6-3.57-3.57-3.57-1.32,0-2.46,.72-3.08,1.78Z"/><path class="d" d="M175.44,78.84c-.03-.33-.07-.67-.11-1.04-.14-1.44-.28-3.11-.41-4.64-.15-1.84-.28-3.48-.35-4.31-.42-.05-.84-.1-1.25-.14-2.75-.3-5.38-.41-7.85-.34-9.5,.24-16.95,2.82-22.18,5.47,.05,2.62-.78,5.24-2.44,7.63,.55,.43,1.23,.97,1.98,1.58,.75,.61,1.58,1.29,2.42,2.01,1.27,1.08,2.58,2.24,3.75,3.36,.39,.38,.77,.75,1.12,1.11,.19,.2,.38,.39,.56,.58,.54,.57,1.01,1.12,1.37,1.62,0,0,.26-.15,.74-.4,.35-.19,.83-.44,1.39-.72,.19-.09,.39-.19,.6-.3,.65-.32,1.41-.67,2.23-1.04s1.71-.74,2.65-1.1c1.41-.54,2.92-1.05,4.46-1.46,1.02-.27,2.05-.5,3.07-.65,1.52-.23,3.01-.31,4.38-.15,1.83,.21,3.44,.84,4.64,2.06l.02,.09c.01,.06,.03,.15,.04,.26-.17-1.97-.37-4.48-.54-7.21-.03-.16-.06-.36-.09-.58-.06-.45-.13-1.03-.2-1.69Z"/><path class="f" d="M137.58,79.62v.07l-.02,.07s.04,0,.05,0l-.02-.07-.02-.07Z"/><path class="f" d="M137.57,79.69v-.07h.01l.02,.07,.02,.07c.25,.02,.51,.05,.75,.11,.38,.1,.72,.26,1.03,.47h0s.39,.3,1.03,.79c.13,.1,.27,.21,.42,.33,1.65-2.39,2.48-5.01,2.44-7.63-.49,.25-.96,.5-1.41,.75-.9,.5-1.72,.99-2.47,1.46-.37,.24-.72,.47-1.05,.69-.44,.3-.85,.59-1.21,.86-1.7,1.25-2.62,2.14-2.72,2.24h0c.04,.27,.09,.54,.14,.8,.84-.6,1.94-.93,3.01-.87v-.07Z"/><path class="d" d="M143.05,93.04l.4-.13h0s.06,.07,.14,.15c.17,.18,.49,.51,.93,.94-.21-.42-.43-.84-.66-1.26,0,0,.45,.84,.66,1.26,.42,.42,.93,.92,1.51,1.46,1.72,1.63,3.93,3.57,5.49,4.38,0,0,.01-6.64-.1-6.79-.8-1.12-1.93-2.41-3.15-3.7-.26-.27-.52-.54-.79-.82-1.88-1.92-4.21-4.11-5.64-5.42-.41-.38-.76-.69-.99-.89-.09-.08-.17-.15-.22-.2-.06-.05-.09-.08-.09-.08l-1.13-1.6c-.31-.21-.66-.37-1.03-.47-.25-.06-.5-.1-.75-.11-.02,0-.04,0-.05,0-1.07-.06-2.17,.27-3.01,.87-.15,.11-.3,.22-.43,.35-.52,.49-.9,1.08-1.13,1.71s-.33,1.31-.3,1.97c.04,.99,.35,1.96,.79,2.89,.15,.31,.31,.61,.48,.91,.47,.82,1.04,1.61,1.72,2.32s1.48,1.32,2.4,1.77c.15,.07,.29,.15,.44,.21,1.39,.58,3.08,.69,4.53,.28Z"/><path class="i" d="M169.33,108.14c.02,.13,.04,.27,.06,.4,.12-.03,.25-.06,.37-.09-.13-.11-.26-.22-.4-.32-.01,0-.02,0-.03,.01Z"/><path class="i" d="M169.32,108.1v.04s.03,0,.04-.01c-.01-.01-.03-.02-.04-.03Z"/><path class="f" d="M146.68,97.65c-.34-.34-.67-.67-.99-1-.38-.4-.74-.8-1.08-1.18-.74-.85-1.37-1.67-1.77-2.37l.2-.05c-1.44,.41-3.14,.29-4.53-.28-.15-.06-.3-.14-.44-.21,.06,.17,.12,.33,.18,.48,.06,.14,.13,.27,.2,.37,2.26,3.33,8.74,8.95,8.79,8.99h0c.41-.23,.14-2.14-.57-4.73Z"/><path class="i" d="M176.21,87.97c-1.2-1.23-2.82-1.85-4.64-2.06-1.37-.16-2.86-.08-4.38,.15-1.02,.15-2.05,.38-3.07,.65-1.53,.41-3.05,.92-4.46,1.46-.94,.36-1.83,.73-2.65,1.1s-1.57,.72-2.23,1.04c-.21,.1-.41,.2-.6,.3-.57,.28-1.04,.53-1.39,.72-.47,.25-.74,.4-.74,.4-.37-.5-.84-1.04-1.37-1.62-.18-.19-.36-.39-.56-.58-.35-.36-.73-.73-1.12-1.11-1.17-1.13-2.48-2.29-3.75-3.36-.84-.72-1.67-1.4-2.42-2.01-.75-.61-1.43-1.15-1.98-1.58-.15-.12-.29-.23-.42-.33-.64-.5-1.03-.79-1.03-.79h0l1.13,1.6s.52,.45,1.3,1.17c1.43,1.31,3.76,3.5,5.64,5.42,.26,.27,.53,.54,.79,.82,1.22,1.3,2.35,2.59,3.15,3.7,.11,.15,.1,6.79,.1,6.79-1.55-.81-3.77-2.76-5.49-4.38-.57-.54-1.09-1.05-1.51-1.46-.43-.43-.76-.76-.93-.94-.08-.08-.13-.14-.14-.14h0l-.4,.12-.2,.05c.4,.7,1.02,1.52,1.77,2.37,.34,.39,.69,.78,1.08,1.18,.32,.33,.65,.67,.99,1,3.7,3.66,8.44,7.34,8.44,7.34,.04,.03,.1,.06,.14,.08,1.3,.77,3.13,1.96,5.38,2.82,1.19,.46,2.49,.82,3.89,.99,1.51,.17,3.14,.09,4.86-.34-.02-.13-.04-.27-.06-.4v-.04s.02,.02,.03,.03c.14,.1,.27,.22,.4,.32,.52-.15,1.06-.33,1.6-.55s1.09-.48,1.64-.78c.17-.09,.34-.2,.5-.31,.96-.69,1.66-1.72,2.17-2.95,.09-.21,.16-.42,.24-.63,.3-.86,.52-1.8,.67-2.78,.5-3.18,.31-6.74,.06-9.24-.04-.39-.08-.75-.12-1.07-.1-.82-.2-1.46-.26-1.82-.02-.11-.03-.2-.04-.26l-.02-.09Zm-1.3,8.18s.03,.11,.03,.18c.03,.09,.04,.18,.01,.28,0,0,0-.14-.01-.28-.09-.24-.4-.43-.89-.58-.24-.08-.53-.14-.86-.19-.16-.03-.34-.05-.52-.07-.36-.04-.76-.08-1.19-.11-1.06-.06-2.31-.07-3.63-.03-.53,.02-1.07,.04-1.62,.07-1.37,.08-2.78,.21-4.13,.37-.34,.04-.67,.08-1,.13-.98,.14-1.92,.3-2.77,.47-2.26,.46-3.87,1.05-4.05,1.68,0,0-.03-.02-.07-.06-.08-.09-.21-.25-.29-.35-.04-.05-.07-.08-.07-.08,.02-.11,.13-.23,.33-.35,.19-.12,.46-.24,.8-.37,2.03-.75,6.47-1.55,10.65-1.89,.84-.07,1.67-.12,2.47-.14,.27,0,.53-.01,.79-.02,.26,0,.51,0,.76,0,.5,0,.97,.02,1.42,.05,2.02,.13,3.49,.52,3.83,1.28Zm-16.23-4.73c.5-.21,1.03-.42,1.58-.62,.55-.2,1.11-.4,1.69-.58,3.86-.98,6.3-1.21,8.02-1.01,.49,.06,.92,.15,1.31,.27,.2,.06,.38,.13,.56,.2,.35,.15,.67,.32,.97,.51,.15,.09,.3,.19,.44,.29,.43,.31,.84,.64,1.28,.98,.02,.02,.04,.05,.05,.1,.03,.14,.02,.36,.02,.36,0,0-.11-.09-.29-.24-.11-.08-.23-.18-.38-.3-.08-.06-.17-.13-.27-.2-.28-.2-.61-.43-.96-.65-.82-.51-1.76-.97-2.51-1-.48-.05-.97-.08-1.45-.09-.97-.01-1.94,.07-2.9,.21-.96,.14-1.9,.35-2.8,.61-1.36,.38-2.65,.85-3.8,1.34-.39,.16-.76,.33-1.11,.5-.35,.17-.69,.33-1.01,.49-1.9,.96-3.1,1.77-3.09,1.79,0,0-.02-.02-.07-.06-.13-.13-.39-.41-.39-.41,0,0,2.13-1.26,5.1-2.5Zm16.28,8.68c-.33,.53-.71,.99-1.15,1.38-.65,.6-1.41,1.05-2.25,1.39-.84,.34-1.75,.56-2.71,.7-.82,.11-1.66,.16-2.52,.15-1.72-.01-3.48-.23-5.12-.54-.41-.08-.81-.16-1.2-.25-.78-.17-1.53-.36-2.21-.54-2.39-.65-4.02-1.3-4.02-1.3,0,0,.38-.57,.37-.53,0,0,.03,.02,.09,.05,.29,.14,1.27,.57,2.71,1.05,2.01,.67,4.88,1.43,7.94,1.63,.44,.03,.88,.04,1.32,.05,.88,0,1.77-.04,2.65-.16,.68-.09,1.36-.21,2.02-.39,.21-.05,.43-.13,.65-.23,.22-.11,.45-.24,.68-.39,.34-.23,.67-.49,.98-.76,.62-.54,1.15-1.1,1.44-1.41,.14-.16,.22-.25,.22-.25l.15,.27s-.03,.07-.03,.1Z"/><path class="c" d="M174.94,96.33c.01,.13,.01,.28,.01,.28,.03-.1,.02-.19-.01-.28Z"/><path class="c" d="M169.66,94.82c-.25,0-.5,0-.76,0-.26,0-.52,0-.79,.02-.8,.03-1.63,.07-2.47,.14,.2,.15,.41,.29,.6,.44,.55-.03,1.09-.06,1.62-.07,1.32-.04,2.56-.04,3.63,.03,.43,.03,.82,.06,1.19,.11,.18,.02,.35,.05,.52,.07,.33,.05,.62,.12,.86,.19,.49,.15,.8,.34,.89,.58,0-.08-.02-.15-.03-.18-.33-.76-1.81-1.15-3.83-1.28-.45-.03-.93-.05-1.42-.05Z"/><path class="c" d="M154.99,96.87c-.34,.13-.61,.25-.8,.37-.19,.12-.3,.24-.33,.35,0,0,.03,.03,.07,.08,.08,.1,.21,.26,.29,.35,.04,.04,.07,.07,.07,.06,.18-.63,1.79-1.21,4.05-1.68,.85-.17,1.78-.33,2.77-.47,.33-.05,.66-.09,1-.13,1.35-.17,2.76-.29,4.13-.37-.19-.15-.4-.3-.6-.44-4.18,.33-8.62,1.13-10.65,1.89Z"/><path class="c" d="M174.62,99.97c-.28,.31-.81,.87-1.44,1.41-.31,.27-.65,.53-.98,.76-.23,.15-.45,.29-.68,.39-.22,.11-.44,.19-.65,.23-.66,.18-1.34,.3-2.02,.39,0,.1,0,.21,0,.31,0,.03,0,.06,0,.09,.96-.13,1.87-.36,2.71-.7s1.6-.8,2.25-1.39c.43-.4,.82-.86,1.15-1.38,0-.04,.03-.07,.03-.1l-.15-.27s-.08,.09-.22,.25Z"/><path class="c" d="M168.85,103.17c-.88,.12-1.77,.17-2.65,.16-.44,0-.88-.02-1.32-.05-3.06-.19-5.93-.96-7.94-1.63-1.43-.48-2.42-.91-2.71-1.05-.06-.03-.09-.04-.09-.05,0-.04-.37,.53-.37,.53,0,0,1.64,.65,4.02,1.3,.68,.19,1.43,.37,2.21,.54,.39,.09,.79,.17,1.2,.25,1.64,.31,3.4,.53,5.12,.54,.86,0,1.71-.04,2.52-.15,0-.03,0-.06,0-.09,0-.1,0-.21,0-.31Z"/><path class="c" d="M163.04,90.27c.91-.25,1.85-.46,2.8-.61,.96-.14,1.93-.22,2.9-.21,.48,0,.97,.03,1.45,.09,.75,.04,1.69,.5,2.51,1,.35,.22,.68,.44,.96,.65,.09,.07,.18,.13,.27,.2,.15,.12,.28,.21,.38,.3,.18,.14,.29,.24,.29,.24h0s.01-.22-.02-.36c-.01-.05-.03-.08-.05-.1-.44-.34-.85-.68-1.28-.98-.14-.1-.29-.2-.44-.29-.3-.19-.62-.36-.97-.51-.18-.07-.36-.14-.56-.2-.39-.12-.82-.21-1.31-.27-1.72-.2-4.16,.03-8.02,1.01-.58,.18-1.14,.38-1.69,.58-.55,.2-1.08,.41-1.58,.62,.19,.07,.38,.12,.57,.19,1.15-.49,2.44-.96,3.8-1.34Z"/><path class="c" d="M154.04,94.39s1.19-.83,3.09-1.79c.32-.16,.65-.32,1.01-.49,.35-.17,.73-.33,1.11-.5-.19-.07-.38-.13-.57-.19-2.97,1.24-5.1,2.5-5.1,2.5,0,0,.26,.28,.39,.41,.04,.04,.07,.07,.07,.06Z"/><path class="f" d="M174.57,68.85c.07,.83,.2,2.47,.35,4.31,.13,1.53,.27,3.2,.41,4.64,.04,.36,.07,.71,.11,1.04,.07,.66,.14,1.23,.2,1.69,.03,.23,.06,.42,.09,.58,.05,.26,.09,.42,.13,.47,.19-.42,.38-.88,.55-1.37,.17-.49,.34-1,.5-1.52h0l.02-2.6v-.75l.05-6.04c-.05-.05-.11-.08-.17-.12-.46-.08-.93-.15-1.38-.21-.29-.04-.58-.08-.87-.12Z"/><path class="i" d="M134.24,78.62l.16,1.22,.02-.02h0c-.06-.39-.12-.79-.18-1.2Z"/><path class="i" d="M137.14,77.58c.37-.27,.77-.56,1.21-.86,.33-.22,.68-.45,1.05-.69,.74-.47,1.56-.96,2.47-1.46,.45-.25,.92-.5,1.41-.75,5.23-2.65,12.68-5.23,22.18-5.47,2.48-.06,5.1,.05,7.85,.34,.42,.04,.83,.09,1.25,.14,0-.08-.01-.15-.02-.22-.01,0-.02,0-.03,0-.02-.51,0-.45,.03,0,.28-.11,.59-.11,.9-.07,.48,.07,.95,.29,1.37,.62,.24,.04,.48,.07,.73,.11,0,0,1.02-10.95,.92-11.13-4.31-14.81-32.25-6.72-32.25-6.72-9.61,1.54-15.66,8.23-13.56,14.99l1.46,11.24c.04,.32,.08,.63,.12,.94,.06,.41,.12,.81,.18,1.2,.1-.1,1.02-.99,2.72-2.24Z"/><path class="i" d="M175.44,68.97c.46,.07,.92,.14,1.38,.21-.42-.33-.89-.55-1.37-.62,0,.13,0,.27-.01,.41Z"/><path class="i" d="M174.52,68.64s.02,0,.03,0c-.04-.44-.06-.51-.03,0Z"/><path class="i" d="M175.45,68.56c-.31-.04-.61-.04-.9,.07,0,.06,.01,.14,.02,.22,.29,.04,.58,.08,.87,.12,0-.14,0-.27,.01-.41Z"/></g><path class="l" d="M274.95,157.6v-60.66h20.72c1.68,0,3.34,.04,4.97,.13s3.23,.28,4.8,.59c1.57,.31,3.1,.77,4.59,1.39,1.49,.62,2.93,1.43,4.34,2.44,2.02,1.46,3.68,3.24,4.97,5.35,1.29,2.11,2.32,4.32,3.08,6.65,.76,2.33,1.29,4.69,1.6,7.08,.31,2.39,.46,4.59,.46,6.61s-.13,4.07-.38,6.15c-.25,2.08-.66,4.11-1.22,6.11-.56,1.99-1.31,3.9-2.23,5.73-.93,1.83-2.09,3.5-3.5,5.01-1.4,1.57-2.94,2.84-4.59,3.79-1.66,.96-3.4,1.7-5.22,2.23-1.83,.54-3.72,.9-5.69,1.1-1.97,.2-3.96,.3-5.98,.3h-20.72Zm5.73-4.89h13.73c2.58,0,5.01-.15,7.29-.46,2.27-.31,4.59-1.08,6.95-2.32,2.02-1.01,3.68-2.39,4.97-4.13,1.29-1.74,2.32-3.64,3.07-5.69,.76-2.05,1.29-4.2,1.6-6.44,.31-2.25,.46-4.41,.46-6.49,0-2.19-.14-4.42-.42-6.7-.28-2.27-.81-4.44-1.6-6.49-.79-2.05-1.85-3.93-3.2-5.64-1.35-1.71-3.09-3.13-5.22-4.25-1.8-.95-3.93-1.57-6.4-1.85-2.47-.28-4.97-.42-7.5-.42h-13.73v50.88Z"/><path class="l" d="M332.07,136.43c0-3.1,.42-6.02,1.27-8.73,.85-2.71,2.09-5.08,3.75-7.11,1.65-2.02,3.69-3.63,6.13-4.81,2.44-1.18,5.25-1.77,8.43-1.77s6.2,.58,8.7,1.74c2.5,1.16,4.58,2.75,6.25,4.78,1.67,2.02,2.93,4.4,3.77,7.14,.85,2.73,1.27,5.65,1.27,8.76s-.42,5.95-1.27,8.64c-.85,2.69-2.09,5.05-3.75,7.08-1.65,2.02-3.72,3.63-6.19,4.81-2.48,1.18-5.35,1.77-8.61,1.77s-6.13-.59-8.61-1.77c-2.48-1.18-4.54-2.78-6.19-4.81-1.65-2.02-2.89-4.38-3.71-7.08-.83-2.69-1.24-5.57-1.24-8.64Zm19.81,18.87c2.75,0,5.12-.52,7.11-1.56,1.98-1.04,3.62-2.43,4.89-4.16,1.28-1.73,2.22-3.73,2.83-6.01,.61-2.28,.91-4.66,.91-7.14,0-2.95-.36-5.59-1.09-7.93-.73-2.34-1.78-4.33-3.16-5.99-1.38-1.65-3.05-2.91-5.01-3.77-1.97-.87-4.17-1.3-6.61-1.3-2.71,0-5.06,.53-7.05,1.59-1.99,1.06-3.62,2.47-4.89,4.22-1.28,1.75-2.22,3.76-2.83,6.05-.61,2.28-.91,4.66-.91,7.14s.3,4.91,.91,7.19c.61,2.28,1.55,4.29,2.83,6.01,1.28,1.73,2.91,3.11,4.89,4.13,1.98,1.02,4.37,1.53,7.17,1.53Z"/><path class="l" d="M409.74,127.47c-.83-3.62-2.36-6.19-4.6-7.73-2.24-1.53-5.17-2.3-8.79-2.3-2.55,0-4.76,.51-6.6,1.53-1.85,1.02-3.37,2.4-4.57,4.13-1.2,1.73-2.08,3.73-2.65,5.99s-.86,4.65-.86,7.17c0,2.36,.25,4.68,.74,6.96,.49,2.28,1.31,4.31,2.45,6.1,1.14,1.79,2.67,3.23,4.6,4.33,1.93,1.1,4.34,1.65,7.25,1.65,1.81,0,3.46-.29,4.95-.88,1.49-.59,2.8-1.41,3.92-2.45,1.12-1.04,2.06-2.27,2.83-3.69,.77-1.42,1.35-2.97,1.74-4.66h4.19c-.47,2.04-1.16,3.98-2.06,5.81s-2.09,3.43-3.57,4.81c-1.47,1.38-3.26,2.47-5.37,3.27-2.1,.81-4.57,1.21-7.4,1.21-3.26,0-6.05-.6-8.37-1.8-2.32-1.2-4.22-2.82-5.69-4.86-1.47-2.04-2.54-4.41-3.21-7.11-.67-2.69-1-5.55-1-8.58,0-4.05,.5-7.49,1.5-10.32,1-2.83,2.39-5.14,4.16-6.93,1.77-1.79,3.85-3.09,6.25-3.89,2.4-.81,5.01-1.21,7.84-1.21,2.16,0,4.18,.29,6.05,.85,1.87,.57,3.52,1.43,4.95,2.57,1.44,1.14,2.61,2.55,3.54,4.22,.92,1.67,1.56,3.61,1.92,5.81h-4.13Z"/><path class="l" d="M418.35,115.14h30.9v3.42h-13.45v39.04h-4.01v-39.04h-13.45v-3.42Z"/><path class="l" d="M454.97,157.6v-42.46h28.25v3.42h-24.24v15.33h21.88v3.42h-21.88v16.87h24.83v3.42h-28.84Z"/><path class="l" d="M491.06,115.14h4.01v25.3c0,5.27,.98,9.06,2.95,11.38,1.97,2.32,5.13,3.48,9.5,3.48,2.28,0,4.22-.3,5.81-.91s2.88-1.53,3.86-2.77c.98-1.24,1.69-2.78,2.12-4.63,.43-1.85,.65-4.03,.65-6.55v-25.3h4.01v26.48c0,5.54-1.37,9.78-4.1,12.71-2.73,2.93-6.85,4.39-12.35,4.39s-9.67-1.49-12.38-4.48c-2.71-2.99-4.07-7.19-4.07-12.62v-26.48Z"/><path class="l" d="M537.53,138.32v19.28l-4.01-.06v-42.4h16.63c4.68,0,8.26,.88,10.73,2.62,2.48,1.75,3.72,4.59,3.72,8.52,0,2.67-.54,4.8-1.62,6.37-1.08,1.57-2.84,2.91-5.28,4.01,1.26,.43,2.24,1.06,2.95,1.89,.71,.83,1.24,1.77,1.59,2.83,.35,1.06,.58,2.18,.68,3.36,.1,1.18,.17,2.32,.21,3.42,.04,1.61,.11,2.95,.21,4.01,.1,1.06,.22,1.93,.35,2.59,.14,.67,.3,1.19,.5,1.56,.2,.37,.43,.66,.71,.86v.35l-4.42,.06c-.43-.71-.74-1.69-.91-2.95-.18-1.26-.32-2.57-.41-3.95-.1-1.38-.18-2.71-.24-4.01-.06-1.3-.17-2.36-.32-3.18-.24-1.14-.62-2.05-1.15-2.74-.53-.69-1.17-1.21-1.92-1.56-.75-.35-1.58-.59-2.51-.71-.92-.12-1.88-.18-2.86-.18h-12.62Zm12.5-3.42c1.49,0,2.88-.16,4.16-.47,1.28-.32,2.39-.82,3.33-1.5,.94-.69,1.69-1.56,2.24-2.62,.55-1.06,.83-2.34,.83-3.83,0-1.57-.29-2.87-.86-3.89-.57-1.02-1.34-1.83-2.3-2.42-.96-.59-2.06-1-3.3-1.24s-2.53-.35-3.86-.35h-12.74v16.34h12.5Z"/><path class="k" d="M600.73,139.49c.22,2.7,.83,4.98,1.81,6.87,.98,1.88,2.25,3.41,3.79,4.59,1.54,1.18,3.33,2.04,5.35,2.57,2.02,.54,4.18,.8,6.49,.8,2.7,0,5.03-.34,6.99-1.01,1.97-.67,3.57-1.59,4.8-2.74,1.23-1.15,2.15-2.49,2.74-4s.88-3.12,.88-4.8c0-2.36-.53-4.27-1.6-5.73-1.07-1.46-2.46-2.65-4.17-3.58-1.71-.93-3.68-1.67-5.9-2.23s-4.49-1.11-6.82-1.64c-2.33-.53-4.61-1.16-6.82-1.89-2.22-.73-4.18-1.71-5.9-2.95-1.71-1.23-3.1-2.82-4.17-4.76-1.07-1.94-1.6-4.39-1.6-7.37,0-2.08,.43-4.1,1.31-6.07,.87-1.97,2.16-3.71,3.87-5.22s3.86-2.72,6.44-3.62c2.58-.9,5.56-1.35,8.93-1.35s6.42,.48,8.97,1.43c2.55,.96,4.68,2.26,6.36,3.92,1.68,1.66,2.95,3.58,3.79,5.77,.84,2.19,1.26,4.52,1.26,6.99h-5.48c0-2.3-.41-4.3-1.22-5.98-.81-1.68-1.92-3.06-3.33-4.13-1.41-1.07-3.01-1.85-4.8-2.36-1.8-.51-3.65-.76-5.56-.76-2.92,0-5.38,.41-7.37,1.22-1.99,.82-3.58,1.87-4.76,3.16-1.18,1.29-1.99,2.73-2.44,4.3-.45,1.57-.54,3.15-.25,4.72,.34,1.97,1.12,3.54,2.36,4.72,1.23,1.18,2.75,2.15,4.55,2.91,1.8,.76,3.78,1.38,5.94,1.85,2.16,.48,4.37,.98,6.61,1.52,2.25,.53,4.42,1.17,6.53,1.9,2.11,.73,3.97,1.71,5.6,2.95,1.63,1.24,2.93,2.82,3.92,4.76,.98,1.94,1.47,4.37,1.47,7.29,0,5.62-1.94,9.97-5.81,13.06-3.87,3.09-9.32,4.63-16.34,4.63-3.15,0-6.07-.41-8.76-1.22s-5.03-2.05-6.99-3.71c-1.97-1.66-3.5-3.71-4.59-6.15-1.1-2.44-1.64-5.32-1.64-8.63h5.56Z"/><path class="k" d="M649.85,157.6v-60.66h40.35v4.89h-34.62v21.9h31.25v4.89h-31.25v24.09h35.47v4.89h-41.2Z"/><path class="k" d="M698.96,127.36c0-4.44,.6-8.59,1.81-12.47,1.21-3.88,2.99-7.26,5.35-10.15,2.36-2.89,5.28-5.18,8.76-6.87,3.48-1.68,7.5-2.53,12.05-2.53s8.86,.83,12.43,2.49c3.57,1.66,6.54,3.93,8.93,6.82,2.39,2.89,4.18,6.29,5.39,10.19s1.81,8.07,1.81,12.51-.6,8.5-1.81,12.34c-1.21,3.85-2.99,7.22-5.35,10.11-2.36,2.89-5.31,5.18-8.84,6.87-3.54,1.68-7.64,2.53-12.3,2.53s-8.76-.84-12.3-2.53c-3.54-1.68-6.49-3.97-8.84-6.87-2.36-2.89-4.13-6.26-5.31-10.11-1.18-3.85-1.77-7.96-1.77-12.34Zm28.31,26.96c3.93,0,7.31-.74,10.15-2.23,2.84-1.49,5.17-3.47,6.99-5.94,1.82-2.47,3.17-5.33,4.04-8.59,.87-3.26,1.31-6.65,1.31-10.19,0-4.21-.52-7.99-1.56-11.33-1.04-3.34-2.54-6.19-4.51-8.55-1.97-2.36-4.35-4.16-7.16-5.39-2.81-1.23-5.95-1.85-9.44-1.85-3.87,0-7.23,.76-10.07,2.27-2.84,1.52-5.17,3.53-6.99,6.02-1.83,2.5-3.17,5.38-4.04,8.63-.87,3.26-1.31,6.65-1.31,10.19s.44,7.02,1.31,10.28c.87,3.26,2.22,6.12,4.04,8.59,1.82,2.47,4.16,4.44,6.99,5.9,2.84,1.46,6.25,2.19,10.24,2.19Z"/><g><path class="l" d="M274.98,218.95v-22.86h8.35c1.48,0,2.7,.17,3.67,.51,.96,.34,1.72,.8,2.29,1.4,.56,.59,.95,1.28,1.17,2.05,.22,.77,.33,1.58,.33,2.43,0,1.27-.26,2.32-.78,3.14-.52,.83-1.19,1.48-2.02,1.95-.83,.48-1.76,.81-2.81,1s-2.1,.29-3.16,.29h-4.89v10.1h-2.16Zm7.11-11.94c1.02,0,1.93-.06,2.73-.19s1.49-.37,2.05-.71c.56-.35,.99-.83,1.3-1.43,.31-.6,.46-1.39,.46-2.37,0-1.44-.47-2.53-1.41-3.27-.94-.74-2.44-1.11-4.49-1.11h-5.59v9.08h4.95Z"/><path class="l" d="M300.73,219.39c-1.06-.02-2.05-.21-2.97-.57s-1.73-.9-2.41-1.62c-.69-.72-1.23-1.62-1.64-2.7-.4-1.08-.6-2.34-.6-3.78,0-1.21,.16-2.33,.48-3.38s.79-1.96,1.43-2.75c.64-.78,1.43-1.4,2.38-1.86,.95-.46,2.06-.68,3.33-.68s2.41,.23,3.37,.68c.95,.46,1.75,1.07,2.38,1.84,.63,.77,1.11,1.69,1.41,2.75,.31,1.06,.46,2.19,.46,3.4,0,1.31-.18,2.5-.54,3.56-.36,1.06-.87,1.97-1.54,2.73-.67,.76-1.47,1.35-2.41,1.76-.94,.41-1.98,.62-3.13,.62Zm5.59-8.67c0-.97-.11-1.88-.32-2.73s-.54-1.58-.98-2.21c-.44-.62-1.02-1.12-1.71-1.48-.7-.36-1.56-.54-2.57-.54s-1.85,.2-2.56,.59c-.71,.39-1.29,.91-1.73,1.56-.44,.65-.77,1.39-.98,2.22-.21,.84-.32,1.7-.32,2.59,0,1.02,.12,1.95,.37,2.81s.6,1.59,1.06,2.21c.46,.61,1.05,1.09,1.75,1.43,.7,.34,1.5,.51,2.41,.51,.99,0,1.85-.2,2.56-.59s1.29-.92,1.73-1.57c.44-.66,.77-1.4,.98-2.22,.21-.83,.32-1.68,.32-2.57Z"/><path class="l" d="M322.99,202.5h1.91v16.45h-1.91v-2.29c-.25,.3-.54,.6-.86,.92-.32,.32-.68,.61-1.1,.87-.41,.26-.89,.49-1.45,.67s-1.19,.27-1.9,.27c-1.1,0-2.02-.15-2.76-.46-.74-.31-1.34-.74-1.79-1.29-.46-.55-.78-1.19-.98-1.92s-.3-1.53-.3-2.4v-10.83h1.91v10.8c0,1.42,.33,2.5,.98,3.25,.66,.75,1.74,1.13,3.24,1.13,.78,0,1.49-.15,2.11-.46s1.15-.74,1.57-1.29c.42-.55,.75-1.21,.98-1.97,.23-.76,.35-1.6,.35-2.51v-8.95Z"/><path class="l" d="M331.5,218.95h-1.9v-16.45h1.9v3.08h.06c.53-1.31,1.21-2.23,2.05-2.75,.84-.52,1.94-.78,3.32-.78v2.06c-1.08-.02-1.97,.15-2.67,.51-.7,.36-1.25,.85-1.67,1.46s-.7,1.34-.86,2.17c-.16,.84-.24,1.71-.24,2.62v8.07Z"/><path class="l" d="M360.04,202.5h1.91v16.45h-1.91v-2.29c-.25,.3-.54,.6-.86,.92-.32,.32-.68,.61-1.1,.87-.41,.26-.89,.49-1.45,.67s-1.19,.27-1.9,.27c-1.1,0-2.02-.15-2.76-.46-.74-.31-1.34-.74-1.79-1.29-.46-.55-.78-1.19-.98-1.92s-.3-1.53-.3-2.4v-10.83h1.91v10.8c0,1.42,.33,2.5,.98,3.25,.66,.75,1.74,1.13,3.24,1.13,.78,0,1.49-.15,2.11-.46s1.15-.74,1.57-1.29c.42-.55,.75-1.21,.98-1.97,.23-.76,.35-1.6,.35-2.51v-8.95Z"/><path class="l" d="M368.46,218.95h-1.91v-16.45h1.91v2.29c.76-.8,1.55-1.46,2.37-1.97,.81-.51,1.79-.76,2.94-.76,1.02,0,1.96,.17,2.83,.52s1.6,.96,2.19,1.83c.4,.59,.64,1.2,.71,1.83,.07,.62,.11,1.28,.11,1.95v10.76h-1.91v-10.73c0-1.48-.33-2.59-.98-3.33-.66-.74-1.75-1.11-3.27-1.11-.59,0-1.13,.09-1.62,.27s-.93,.42-1.32,.71c-.39,.3-.73,.64-1,1.02-.28,.38-.49,.78-.63,1.21-.19,.53-.31,1.04-.35,1.52-.04,.49-.06,1.02-.06,1.59v8.86Z"/><path class="l" d="M395.03,218.95h-1.9v-16.45h1.9v3.08h.06c.53-1.31,1.21-2.23,2.05-2.75,.84-.52,1.94-.78,3.32-.78v2.06c-1.08-.02-1.97,.15-2.67,.51-.7,.36-1.25,.85-1.67,1.46s-.7,1.34-.86,2.17c-.16,.84-.24,1.71-.24,2.62v8.07Z"/><path class="l" d="M404.78,211.17c0,.89,.12,1.73,.35,2.52,.23,.79,.58,1.48,1.03,2.06,.46,.58,1.03,1.05,1.73,1.4,.7,.35,1.5,.52,2.41,.52,1.25,0,2.32-.33,3.21-.98,.89-.66,1.48-1.59,1.78-2.79h2.13c-.23,.78-.54,1.51-.92,2.17-.38,.67-.86,1.25-1.43,1.75-.57,.5-1.25,.88-2.03,1.16-.78,.27-1.69,.41-2.73,.41-1.31,0-2.44-.22-3.4-.67-.95-.44-1.74-1.05-2.35-1.83s-1.07-1.68-1.37-2.73c-.3-1.05-.44-2.18-.44-3.38s.17-2.34,.52-3.4c.35-1.06,.85-1.98,1.49-2.78,.65-.79,1.43-1.42,2.37-1.87s1.99-.68,3.17-.68c2.27,0,4.04,.78,5.33,2.33,1.29,1.56,1.93,3.82,1.91,6.78h-12.76Zm10.73-1.59c0-.8-.11-1.56-.33-2.27-.22-.71-.55-1.32-.98-1.84s-.98-.93-1.63-1.24-1.41-.46-2.25-.46-1.59,.16-2.24,.48-1.2,.74-1.65,1.27-.82,1.14-1.09,1.84c-.28,.7-.46,1.44-.54,2.22h10.73Zm-7.18-8.86l3.52-4.41h2.44l-4.35,4.41h-1.62Z"/><path class="l" d="M419.61,204.09v-1.59h2.45v-2.6c0-1.31,.26-2.35,.79-3.11,.53-.76,1.43-1.14,2.7-1.14,.3,0,.57,.01,.83,.03,.25,.02,.51,.05,.76,.1v1.75c-.42-.11-.8-.16-1.14-.16-.49,0-.87,.09-1.14,.27s-.48,.42-.6,.71c-.13,.3-.21,.63-.24,1-.03,.37-.05,.75-.05,1.13v2.03h3.17v1.59h-3.17v14.86h-1.91v-14.86h-2.45Z"/><path class="l" d="M431.26,211.17c0,.89,.12,1.73,.35,2.52,.23,.79,.58,1.48,1.03,2.06,.46,.58,1.03,1.05,1.73,1.4,.7,.35,1.5,.52,2.41,.52,1.25,0,2.32-.33,3.21-.98,.89-.66,1.48-1.59,1.78-2.79h2.13c-.23,.78-.54,1.51-.92,2.17-.38,.67-.86,1.25-1.43,1.75-.57,.5-1.25,.88-2.03,1.16-.78,.27-1.69,.41-2.73,.41-1.31,0-2.44-.22-3.4-.67-.95-.44-1.74-1.05-2.35-1.83s-1.07-1.68-1.37-2.73c-.3-1.05-.44-2.18-.44-3.38s.17-2.34,.52-3.4c.35-1.06,.85-1.98,1.49-2.78,.65-.79,1.43-1.42,2.37-1.87s1.99-.68,3.17-.68c2.27,0,4.04,.78,5.33,2.33,1.29,1.56,1.93,3.82,1.91,6.78h-12.76Zm10.73-1.59c0-.8-.11-1.56-.33-2.27-.22-.71-.55-1.32-.98-1.84s-.98-.93-1.63-1.24-1.41-.46-2.25-.46-1.59,.16-2.24,.48-1.2,.74-1.65,1.27-.82,1.14-1.09,1.84c-.28,.7-.46,1.44-.54,2.22h10.73Zm-7.18-8.86l3.52-4.41h2.44l-4.35,4.41h-1.62Z"/><path class="l" d="M449.74,218.95h-1.9v-16.45h1.9v3.08h.06c.53-1.31,1.21-2.23,2.05-2.75,.84-.52,1.94-.78,3.32-.78v2.06c-1.08-.02-1.97,.15-2.67,.51-.7,.36-1.25,.85-1.67,1.46s-.7,1.34-.86,2.17c-.16,.84-.24,1.71-.24,2.62v8.07Z"/><path class="l" d="M459.49,211.17c0,.89,.12,1.73,.35,2.52,.23,.79,.58,1.48,1.03,2.06,.46,.58,1.03,1.05,1.73,1.4,.7,.35,1.5,.52,2.41,.52,1.25,0,2.32-.33,3.21-.98,.89-.66,1.48-1.59,1.78-2.79h2.13c-.23,.78-.54,1.51-.92,2.17-.38,.67-.86,1.25-1.43,1.75-.57,.5-1.25,.88-2.03,1.16-.78,.27-1.69,.41-2.73,.41-1.31,0-2.44-.22-3.4-.67-.95-.44-1.74-1.05-2.35-1.83s-1.07-1.68-1.37-2.73c-.3-1.05-.44-2.18-.44-3.38s.17-2.34,.52-3.4c.35-1.06,.85-1.98,1.49-2.78,.65-.79,1.43-1.42,2.37-1.87s1.99-.68,3.17-.68c2.27,0,4.04,.78,5.33,2.33,1.29,1.56,1.93,3.82,1.91,6.78h-12.76Zm10.73-1.59c0-.8-.11-1.56-.33-2.27-.22-.71-.55-1.32-.98-1.84s-.98-.93-1.63-1.24-1.41-.46-2.25-.46-1.59,.16-2.24,.48-1.2,.74-1.65,1.27-.82,1.14-1.09,1.84c-.28,.7-.46,1.44-.54,2.22h10.73Z"/><path class="l" d="M477.88,218.95h-1.91v-16.45h1.91v2.29c.76-.8,1.55-1.46,2.37-1.97,.81-.51,1.79-.76,2.94-.76,1.02,0,1.96,.17,2.83,.52s1.6,.96,2.19,1.83c.4,.59,.64,1.2,.71,1.83,.07,.62,.11,1.28,.11,1.95v10.76h-1.91v-10.73c0-1.48-.33-2.59-.98-3.33-.66-.74-1.75-1.11-3.27-1.11-.59,0-1.13,.09-1.62,.27s-.93,.42-1.32,.71c-.39,.3-.73,.64-1,1.02-.28,.38-.49,.78-.63,1.21-.19,.53-.31,1.04-.35,1.52-.04,.49-.06,1.02-.06,1.59v8.86Z"/><path class="l" d="M505.28,207.68c-.34-1.23-.92-2.19-1.75-2.87-.83-.69-1.87-1.03-3.14-1.03-.97,0-1.81,.2-2.51,.6-.7,.4-1.27,.94-1.71,1.6s-.77,1.42-.98,2.25-.32,1.68-.32,2.52,.1,1.71,.3,2.54c.2,.83,.52,1.57,.97,2.22,.44,.66,1.02,1.18,1.71,1.57,.7,.39,1.54,.59,2.54,.59,1.42,0,2.56-.39,3.41-1.17,.86-.78,1.4-1.86,1.63-3.24h2.03c-.17,.91-.44,1.74-.81,2.49-.37,.75-.85,1.4-1.43,1.94-.58,.54-1.28,.96-2.08,1.25s-1.73,.44-2.76,.44c-1.31,0-2.44-.22-3.4-.67-.95-.44-1.74-1.05-2.35-1.83-.61-.77-1.07-1.69-1.37-2.75-.3-1.06-.44-2.19-.44-3.4,0-1.14,.16-2.24,.49-3.29s.81-1.97,1.45-2.78c.63-.8,1.42-1.44,2.37-1.92,.94-.48,2.03-.71,3.25-.71,1.91,0,3.45,.46,4.62,1.37s1.91,2.33,2.21,4.25h-1.94Z"/><path class="l" d="M512.45,211.17c0,.89,.12,1.73,.35,2.52,.23,.79,.58,1.48,1.03,2.06,.46,.58,1.03,1.05,1.73,1.4,.7,.35,1.5,.52,2.41,.52,1.25,0,2.32-.33,3.21-.98,.89-.66,1.48-1.59,1.78-2.79h2.13c-.23,.78-.54,1.51-.92,2.17-.38,.67-.86,1.25-1.43,1.75-.57,.5-1.25,.88-2.03,1.16-.78,.27-1.69,.41-2.73,.41-1.31,0-2.44-.22-3.4-.67-.95-.44-1.74-1.05-2.35-1.83s-1.07-1.68-1.37-2.73c-.3-1.05-.44-2.18-.44-3.38s.17-2.34,.52-3.4c.35-1.06,.85-1.98,1.49-2.78,.65-.79,1.43-1.42,2.37-1.87s1.99-.68,3.17-.68c2.27,0,4.04,.78,5.33,2.33,1.29,1.56,1.93,3.82,1.91,6.78h-12.76Zm10.73-1.59c0-.8-.11-1.56-.33-2.27-.22-.71-.55-1.32-.98-1.84s-.98-.93-1.63-1.24-1.41-.46-2.25-.46-1.59,.16-2.24,.48-1.2,.74-1.65,1.27-.82,1.14-1.09,1.84c-.28,.7-.46,1.44-.54,2.22h10.73Z"/><path class="l" d="M530.58,218.95h-1.91v-16.45h1.91v2.48h.06c.49-.95,1.18-1.68,2.1-2.17,.91-.5,1.91-.75,2.98-.75,.76,0,1.41,.08,1.94,.25,.53,.17,.98,.4,1.35,.68,.37,.29,.68,.62,.92,1s.45,.79,.62,1.24c.55-1.08,1.29-1.88,2.21-2.4,.92-.52,1.97-.78,3.16-.78,1.12,0,2.02,.19,2.68,.56,.67,.37,1.18,.86,1.54,1.46s.6,1.3,.71,2.08c.12,.78,.17,1.59,.17,2.41v10.38h-1.91v-11.37c0-1.19-.25-2.12-.75-2.79-.5-.68-1.42-1.02-2.78-1.02-.7,0-1.37,.15-2.02,.46s-1.21,.78-1.7,1.41c-.21,.28-.39,.6-.52,.97-.14,.37-.25,.76-.33,1.16-.08,.4-.14,.8-.17,1.21-.03,.4-.05,.77-.05,1.11v8.86h-1.91v-11.37c0-1.19-.25-2.12-.75-2.79s-1.42-1.02-2.78-1.02c-.7,0-1.37,.15-2.02,.46-.65,.31-1.21,.78-1.7,1.41-.21,.28-.39,.6-.52,.97-.14,.37-.25,.76-.33,1.16-.08,.4-.14,.8-.17,1.21-.03,.4-.05,.77-.05,1.11v8.86Z"/><path class="l" d="M556.56,211.17c0,.89,.12,1.73,.35,2.52,.23,.79,.58,1.48,1.03,2.06,.46,.58,1.03,1.05,1.73,1.4,.7,.35,1.5,.52,2.41,.52,1.25,0,2.32-.33,3.21-.98,.89-.66,1.48-1.59,1.78-2.79h2.13c-.23,.78-.54,1.51-.92,2.17-.38,.67-.86,1.25-1.43,1.75-.57,.5-1.25,.88-2.03,1.16-.78,.27-1.69,.41-2.73,.41-1.31,0-2.44-.22-3.4-.67-.95-.44-1.74-1.05-2.35-1.83s-1.07-1.68-1.37-2.73c-.3-1.05-.44-2.18-.44-3.38s.17-2.34,.52-3.4c.35-1.06,.85-1.98,1.49-2.78,.65-.79,1.43-1.42,2.37-1.87s1.99-.68,3.17-.68c2.27,0,4.04,.78,5.33,2.33,1.29,1.56,1.93,3.82,1.91,6.78h-12.76Zm10.73-1.59c0-.8-.11-1.56-.33-2.27-.22-.71-.55-1.32-.98-1.84s-.98-.93-1.63-1.24-1.41-.46-2.25-.46-1.59,.16-2.24,.48-1.2,.74-1.65,1.27-.82,1.14-1.09,1.84c-.28,.7-.46,1.44-.54,2.22h10.73Z"/><path class="l" d="M574.94,218.95h-1.91v-16.45h1.91v2.29c.76-.8,1.55-1.46,2.37-1.97,.81-.51,1.79-.76,2.94-.76,1.02,0,1.96,.17,2.83,.52s1.6,.96,2.19,1.83c.4,.59,.64,1.2,.71,1.83,.07,.62,.11,1.28,.11,1.95v10.76h-1.91v-10.73c0-1.48-.33-2.59-.98-3.33-.66-.74-1.75-1.11-3.27-1.11-.59,0-1.13,.09-1.62,.27s-.93,.42-1.32,.71c-.39,.3-.73,.64-1,1.02-.28,.38-.49,.78-.63,1.21-.19,.53-.31,1.04-.35,1.52-.04,.49-.06,1.02-.06,1.59v8.86Z"/><path class="l" d="M596.47,219.01c-.23,.04-.54,.12-.92,.22-.38,.11-.8,.16-1.27,.16-.95,0-1.68-.24-2.17-.71-.5-.48-.75-1.33-.75-2.56v-12.03h-2.32v-1.59h2.32v-4.57h1.91v4.57h3.08v1.59h-3.08v11.27c0,.4,0,.75,.03,1.05,.02,.3,.08,.54,.19,.73s.27,.33,.49,.41c.22,.08,.53,.13,.94,.13,.25,0,.51-.02,.78-.06,.26-.04,.52-.09,.78-.16v1.56Z"/><path class="l" d="M620,207.68c-.34-1.23-.92-2.19-1.75-2.87-.83-.69-1.87-1.03-3.14-1.03-.97,0-1.81,.2-2.51,.6-.7,.4-1.27,.94-1.71,1.6s-.77,1.42-.98,2.25-.32,1.68-.32,2.52,.1,1.71,.3,2.54c.2,.83,.52,1.57,.97,2.22,.44,.66,1.02,1.18,1.71,1.57,.7,.39,1.54,.59,2.54,.59,1.42,0,2.56-.39,3.41-1.17,.86-.78,1.4-1.86,1.63-3.24h2.03c-.17,.91-.44,1.74-.81,2.49-.37,.75-.85,1.4-1.43,1.94-.58,.54-1.28,.96-2.08,1.25s-1.73,.44-2.76,.44c-1.31,0-2.44-.22-3.4-.67-.95-.44-1.74-1.05-2.35-1.83-.61-.77-1.07-1.69-1.37-2.75-.3-1.06-.44-2.19-.44-3.4,0-1.14,.16-2.24,.49-3.29s.81-1.97,1.45-2.78c.63-.8,1.42-1.44,2.37-1.92,.94-.48,2.03-.71,3.25-.71,1.91,0,3.45,.46,4.62,1.37s1.91,2.33,2.21,4.25h-1.94Z"/><path class="l" d="M626,218.95v-22.86h1.91v8.7c.76-.8,1.55-1.46,2.37-1.97,.81-.51,1.79-.76,2.94-.76,1.02,0,1.96,.17,2.83,.52s1.6,.96,2.19,1.83c.4,.59,.64,1.2,.71,1.83,.07,.62,.11,1.28,.11,1.95v10.76h-1.91v-10.73c0-1.48-.33-2.59-.98-3.33-.66-.74-1.75-1.11-3.27-1.11-.59,0-1.13,.09-1.62,.27s-.93,.42-1.32,.71c-.39,.3-.73,.64-1,1.02-.28,.38-.49,.78-.63,1.21-.19,.53-.31,1.04-.35,1.52-.04,.49-.06,1.02-.06,1.59v8.86h-1.91Z"/><path class="l" d="M643.84,198.91v-2.83h2.1v2.83h-2.1Zm.1,20.04v-16.45h1.9v16.45h-1.9Z"/><path class="l" d="M652.7,218.95h-1.9v-16.45h1.9v3.08h.06c.53-1.31,1.21-2.23,2.05-2.75,.84-.52,1.94-.78,3.32-.78v2.06c-1.08-.02-1.97,.15-2.67,.51-.7,.36-1.25,.85-1.67,1.46s-.7,1.34-.86,2.17c-.16,.84-.24,1.71-.24,2.62v8.07Z"/><path class="l" d="M672.42,202.5h1.91v16.45h-1.91v-2.29c-.25,.3-.54,.6-.86,.92-.32,.32-.68,.61-1.1,.87-.41,.26-.89,.49-1.45,.67s-1.19,.27-1.9,.27c-1.1,0-2.02-.15-2.76-.46-.74-.31-1.34-.74-1.79-1.29-.46-.55-.78-1.19-.98-1.92s-.3-1.53-.3-2.4v-10.83h1.91v10.8c0,1.42,.33,2.5,.98,3.25,.66,.75,1.74,1.13,3.24,1.13,.78,0,1.49-.15,2.11-.46s1.15-.74,1.57-1.29c.42-.55,.75-1.21,.98-1.97,.23-.76,.35-1.6,.35-2.51v-8.95Z"/><path class="l" d="M680.93,218.95h-1.9v-16.45h1.9v3.08h.06c.53-1.31,1.21-2.23,2.05-2.75,.84-.52,1.94-.78,3.32-.78v2.06c-1.08-.02-1.97,.15-2.67,.51-.7,.36-1.25,.85-1.67,1.46s-.7,1.34-.86,2.17c-.16,.84-.24,1.71-.24,2.62v8.07Z"/><path class="l" d="M702.2,202.5h1.9v14.86c0,1.1-.11,2.15-.33,3.16-.22,1.01-.62,1.89-1.19,2.65-.57,.76-1.36,1.37-2.35,1.83-1,.46-2.28,.68-3.84,.68-1.21,0-2.24-.15-3.11-.46-.87-.31-1.58-.69-2.13-1.16-.55-.47-.97-.98-1.25-1.54-.29-.56-.44-1.08-.46-1.57h2.03c.15,.61,.38,1.12,.7,1.51,.32,.39,.69,.7,1.13,.92,.43,.22,.92,.38,1.45,.46,.53,.08,1.08,.13,1.65,.13,1.29,0,2.33-.22,3.11-.67,.78-.44,1.38-1.03,1.78-1.75,.4-.72,.66-1.54,.78-2.44,.12-.91,.16-1.84,.14-2.79-.61,1.02-1.46,1.78-2.52,2.3-1.07,.52-2.19,.78-3.35,.78-1.25,0-2.33-.24-3.25-.71-.92-.48-1.68-1.11-2.29-1.91s-1.05-1.72-1.35-2.78c-.3-1.06-.44-2.16-.44-3.3,0-1.21,.14-2.34,.41-3.4,.28-1.06,.71-1.97,1.32-2.75s1.37-1.38,2.3-1.83c.93-.44,2.06-.67,3.4-.67,.53,0,1.07,.07,1.62,.22,.55,.15,1.08,.36,1.6,.63,.52,.28,1,.62,1.43,1.05,.43,.42,.79,.9,1.06,1.43h.06v-2.89Zm0,8.29c0-1-.12-1.92-.37-2.78-.24-.86-.6-1.6-1.06-2.22-.47-.62-1.05-1.12-1.75-1.48-.7-.36-1.49-.54-2.38-.54-.8,0-1.55,.14-2.22,.43-.68,.29-1.27,.7-1.78,1.25-.51,.55-.91,1.22-1.19,2.02-.29,.79-.43,1.71-.43,2.75-.04,1.04,.04,2.01,.25,2.91,.21,.9,.55,1.69,1.02,2.37,.47,.68,1.06,1.21,1.78,1.6s1.58,.59,2.57,.59c.87,0,1.65-.18,2.33-.56,.69-.37,1.27-.87,1.75-1.49,.48-.62,.84-1.35,1.09-2.19,.25-.84,.38-1.72,.38-2.65Z"/><path class="l" d="M709.09,198.91v-2.83h2.1v2.83h-2.1Zm.1,20.04v-16.45h1.9v16.45h-1.9Z"/><path class="l" d="M727.61,207.68c-.34-1.23-.92-2.19-1.75-2.87-.83-.69-1.87-1.03-3.14-1.03-.97,0-1.81,.2-2.51,.6-.7,.4-1.27,.94-1.71,1.6s-.77,1.42-.98,2.25-.32,1.68-.32,2.52,.1,1.71,.3,2.54c.2,.83,.52,1.57,.97,2.22,.44,.66,1.02,1.18,1.71,1.57,.7,.39,1.54,.59,2.54,.59,1.42,0,2.56-.39,3.41-1.17,.86-.78,1.4-1.86,1.63-3.24h2.03c-.17,.91-.44,1.74-.81,2.49-.37,.75-.85,1.4-1.43,1.94-.58,.54-1.28,.96-2.08,1.25s-1.73,.44-2.76,.44c-1.31,0-2.44-.22-3.4-.67-.95-.44-1.74-1.05-2.35-1.83-.61-.77-1.07-1.69-1.37-2.75-.3-1.06-.44-2.19-.44-3.4,0-1.14,.16-2.24,.49-3.29s.81-1.97,1.45-2.78c.63-.8,1.42-1.44,2.37-1.92,.94-.48,2.03-.71,3.25-.71,1.91,0,3.45,.46,4.62,1.37s1.91,2.33,2.21,4.25h-1.94Z"/><path class="l" d="M741.16,209.36c.36-.04,.79-.11,1.29-.19s.91-.2,1.22-.35c.32-.15,.51-.4,.59-.75s.11-.67,.11-.97c0-.97-.31-1.77-.94-2.4s-1.68-.94-3.16-.94c-.66,0-1.26,.06-1.81,.17-.55,.12-1.03,.32-1.45,.6-.41,.29-.75,.67-1.02,1.14-.26,.48-.44,1.08-.52,1.79h-1.94c.06-.97,.29-1.8,.67-2.49,.38-.69,.87-1.25,1.48-1.68,.6-.43,1.3-.75,2.1-.95,.79-.2,1.63-.3,2.52-.3,.83,0,1.6,.09,2.33,.27s1.37,.47,1.91,.86,.96,.92,1.27,1.57c.31,.66,.46,1.46,.46,2.41v8.95c0,.74,.13,1.21,.4,1.41s.8,.15,1.6-.14v1.49c-.15,.04-.36,.11-.65,.19-.29,.08-.57,.13-.84,.13-.3,0-.58-.03-.86-.09-.32-.04-.57-.14-.76-.3-.19-.16-.34-.35-.46-.57-.12-.22-.2-.46-.24-.73-.04-.26-.06-.54-.06-.84-.8,.89-1.73,1.57-2.76,2.03-1.04,.46-2.16,.7-3.37,.7-.72,0-1.41-.09-2.08-.29-.67-.19-1.25-.49-1.76-.89-.51-.4-.91-.89-1.21-1.48-.3-.58-.44-1.27-.44-2.08,0-2.79,1.92-4.45,5.75-4.95l2.63-.35Zm3.21,.95c-.8,.34-1.62,.56-2.44,.67-.83,.11-1.65,.19-2.48,.25-1.46,.11-2.6,.43-3.41,.98-.81,.55-1.22,1.39-1.22,2.51,0,.51,.1,.95,.3,1.32s.47,.68,.79,.92,.71,.42,1.14,.54c.43,.12,.87,.17,1.32,.17,.76,0,1.5-.09,2.22-.29s1.36-.48,1.92-.87,1.01-.89,1.35-1.49c.34-.6,.51-1.32,.51-2.14v-2.57Z"/><path class="l" d="M751.55,218.95v-22.86h1.9v22.86h-1.9Z"/></g><rect class="g" x="274.13" y="175.82" width="479.97" height="2.01"/></svg>